<svg width="45" height="44" viewBox="0 0 45 44" fill="none" xmlns="http://www.w3.org/2000/svg">
<g filter="url(#filter0_d_114_449)">
<path fill-rule="evenodd" clip-rule="evenodd" d="M22.5 27.75C27.8848 27.75 32.25 23.6086 32.25 18.5C32.25 13.3914 27.8848 9.25 22.5 9.25C17.1152 9.25 12.75 13.3914 12.75 18.5C12.75 23.6086 17.1152 27.75 22.5 27.75ZM22.5 24.6667C26.0898 24.6667 29 21.9057 29 18.5C29 15.0942 26.0898 12.3333 22.5 12.3333C18.9101 12.3333 16 15.0942 16 18.5C16 21.9057 18.9101 24.6667 22.5 24.6667Z" fill="white"/>
<path d="M32.25 7.70825C31.3525 7.70825 30.625 8.39849 30.625 9.24992C30.625 10.1014 31.3525 10.7916 32.25 10.7916C33.1475 10.7916 33.875 10.1014 33.875 9.24992C33.875 8.39849 33.1475 7.70825 32.25 7.70825Z" fill="white"/>
<path fill-rule="evenodd" clip-rule="evenodd" d="M5.68769 6.59234C4.625 8.57102 4.625 11.1613 4.625 16.3417V20.6584C4.625 25.8389 4.625 28.4292 5.68769 30.4078C6.62245 32.1483 8.11401 33.5634 9.9486 34.4502C12.0342 35.4584 14.7645 35.4584 20.225 35.4584H24.775C30.2355 35.4584 32.9658 35.4584 35.0513 34.4502C36.886 33.5634 38.3776 32.1483 39.3123 30.4078C40.375 28.4292 40.375 25.8389 40.375 20.6584V16.3417C40.375 11.1613 40.375 8.57102 39.3123 6.59234C38.3776 4.85183 36.886 3.43676 35.0513 2.54994C32.9658 1.54175 30.2355 1.54175 24.775 1.54175H20.225C14.7645 1.54175 12.0342 1.54175 9.9486 2.54994C8.11401 3.43676 6.62245 4.85183 5.68769 6.59234ZM24.775 4.62508H20.225C17.4411 4.62508 15.5487 4.62749 14.0859 4.74086C12.661 4.85131 11.9324 5.05149 11.4241 5.2972C10.201 5.88843 9.20664 6.83181 8.58345 7.99214C8.32446 8.47438 8.11345 9.16566 7.99704 10.5175C7.87754 11.9052 7.875 13.7006 7.875 16.3417V20.6584C7.875 23.2996 7.87754 25.0949 7.99704 26.4827C8.11345 27.8346 8.32446 28.5259 8.58345 29.0081C9.20664 30.1683 10.201 31.1117 11.4241 31.7029C11.9324 31.9487 12.661 32.1489 14.0859 32.2593C15.5487 32.3726 17.4411 32.3751 20.225 32.3751H24.775C27.559 32.3751 29.4513 32.3726 30.9141 32.2593C32.3391 32.1489 33.0677 31.9487 33.576 31.7029C34.799 31.1117 35.7933 30.1683 36.4165 29.0081C36.6755 28.5259 36.8866 27.8346 37.003 26.4827C37.1224 25.0949 37.125 23.2996 37.125 20.6584V16.3417C37.125 13.7006 37.1224 11.9052 37.003 10.5175C36.8866 9.16566 36.6755 8.47438 36.4165 7.99214C35.7933 6.83181 34.799 5.88843 33.576 5.2972C33.0677 5.05149 32.3391 4.85131 30.9141 4.74086C29.4513 4.62749 27.559 4.62508 24.775 4.62508Z" fill="white"/>
</g>
<defs>
<filter id="filter0_d_114_449" x="-1" y="0" width="47" height="45" filterUnits="userSpaceOnUse" color-interpolation-filters="sRGB">
<feFlood flood-opacity="0" result="BackgroundImageFix"/>
<feColorMatrix in="SourceAlpha" type="matrix" values="0 0 0 0 0 0 0 0 0 0 0 0 0 0 0 0 0 0 127 0" result="hardAlpha"/>
<feOffset dy="4"/>
<feGaussianBlur stdDeviation="2"/>
<feComposite in2="hardAlpha" operator="out"/>
<feColorMatrix type="matrix" values="0 0 0 0 0 0 0 0 0 0 0 0 0 0 0 0 0 0 0.25 0"/>
<feBlend mode="normal" in2="BackgroundImageFix" result="effect1_dropShadow_114_449"/>
<feBlend mode="normal" in="SourceGraphic" in2="effect1_dropShadow_114_449" result="shape"/>
</filter>
</defs>
</svg>
